<?xml version="1.0" encoding="iso-8859-1"?>
<!-- Generator: Adobe Illustrator 19.0.0, SVG Export Plug-In . SVG Version: 6.00 Build 0)  -->
<svg version="1.1" id="Layer_1" xmlns="http://www.w3.org/2000/svg" xmlns:xlink="http://www.w3.org/1999/xlink" x="0px" y="0px"
	 viewBox="0 0 512 512" style="enable-background:new 0 0 512 512;" xml:space="preserve">
<g>
	<g>
		<path d="M485.608,137.237v-36.948H311.423v36.948H0v205.856h15.835v68.619h58.062v-36.948h364.206v36.948h58.062v-68.619H512
			V137.237H485.608z M327.258,116.124h142.515v21.113H327.258V116.124z M58.062,395.876H31.67v-21.113h26.392V395.876z
			 M480.33,395.876h-26.392v-21.113h26.392V395.876z M480.33,358.928H31.67v-15.835h448.66V358.928z M496.165,327.258H15.835
			V153.072h480.33V327.258z"/>
	</g>
</g>
<g>
	<g>
		<path d="M36.948,174.186v131.959h438.103V174.186H36.948z M459.216,290.309H52.784V190.021h195.299v71.258h15.835v-71.258h195.299
			V290.309z"/>
	</g>
</g>
<g>
	<g>
		<rect x="306.144" y="208.495" width="15.835" height="63.34"/>
	</g>
</g>
<g>
	<g>
		<rect x="348.371" y="208.495" width="15.835" height="63.34"/>
	</g>
</g>
<g>
	<g>
		<rect x="390.598" y="208.495" width="15.835" height="63.34"/>
	</g>
</g>
<g>
	<g>
		<rect x="105.567" y="208.495" width="15.835" height="63.34"/>
	</g>
</g>
<g>
	<g>
		<rect x="147.794" y="208.495" width="15.835" height="63.34"/>
	</g>
</g>
<g>
	<g>
		<rect x="190.021" y="208.495" width="15.835" height="63.34"/>
	</g>
</g>
<g>
</g>
<g>
</g>
<g>
</g>
<g>
</g>
<g>
</g>
<g>
</g>
<g>
</g>
<g>
</g>
<g>
</g>
<g>
</g>
<g>
</g>
<g>
</g>
<g>
</g>
<g>
</g>
<g>
</g>
</svg>
